<svg width="20" height="20" viewBox="0 0 20 20" fill="none" xmlns="http://www.w3.org/2000/svg">
<path fill-rule="evenodd" clip-rule="evenodd" d="M9.99996 18.3334C14.6023 18.3334 18.3333 14.6024 18.3333 10C18.3333 5.39765 14.6023 1.66669 9.99996 1.66669C5.39759 1.66669 1.66663 5.39765 1.66663 10C1.66663 14.6024 5.39759 18.3334 9.99996 18.3334ZM11.2388 5.18002L10.8921 11.0734H9.10542L8.75875 5.18002H11.2388ZM11.3588 12.94C11.3588 13.7267 10.8254 14.3134 9.99875 14.3134C9.18542 14.3134 8.62542 13.7267 8.62542 12.94C8.62542 12.1267 9.18542 11.5534 9.99875 11.5534C10.8121 11.5534 11.3454 12.1267 11.3588 12.94Z" fill="#E32213"/>
</svg>
